<?xml version="1.0" encoding="iso-8859-1"?>
<!-- Uploaded to: SVG Repo, www.svgrepo.com, Generator: SVG Repo Mixer Tools -->
<svg fill="#000000" height="800px" width="800px" version="1.1" id="Layer_1" xmlns="http://www.w3.org/2000/svg" xmlns:xlink="http://www.w3.org/1999/xlink" 
	 viewBox="0 0 512.853 512.853" xml:space="preserve">
<g transform="translate(1 1)">
	<g>
		<g>
			<path d="M263.96,452.12h-17.067c-5.12,0-8.533,3.413-8.533,8.533c0,5.12,3.413,8.533,8.533,8.533h17.067
				c5.12,0,8.533-3.413,8.533-8.533C272.493,455.533,269.08,452.12,263.96,452.12z"/>
			<path d="M248.6,286.573c1.707,2.56,4.267,3.413,6.827,3.413c2.56,0,5.12-0.853,6.827-3.413l0.853-1.707
				c14.507-17.92,32.427-34.987,48.64-51.2l7.68-7.68c11.093-10.24,15.36-25.6,11.947-40.107
				c-3.413-15.36-16.213-28.16-31.573-31.573c-12.8-2.56-26.453,0-36.693,8.533c-3.413,2.56-5.12,5.12-7.68,7.68
				c-2.56-2.56-5.12-5.12-7.68-7.68c-10.24-8.533-23.893-11.093-36.693-8.533c-15.36,3.413-28.16,16.213-31.573,31.573
				c-3.413,14.507,1.707,29.867,11.947,40.107l7.68,7.68c17.067,16.213,34.133,33.28,48.64,51.2L248.6,286.573z M211.053,221.72
				l-7.68-7.68c-5.973-5.973-8.533-14.507-6.827-23.893c1.707-9.387,9.387-17.067,18.773-18.773
				c1.707-0.853,4.267-0.853,5.973-0.853c5.973,0,11.093,1.707,16.213,5.973c5.973,4.267,9.387,11.947,9.387,19.627
				c0,5.12,3.413,8.533,8.533,8.533c5.12,0,8.533-3.413,8.533-8.533c0-7.68,3.413-15.36,9.387-19.627
				c5.973-5.12,14.507-6.827,22.187-5.12c9.387,1.707,17.067,9.387,18.773,18.773c2.56,8.533,0,17.92-6.827,23.893l-7.68,7.68
				c-15.36,14.507-30.72,29.867-44.373,46.08C241.773,251.587,226.413,236.227,211.053,221.72z"/>
			<path d="M485.608,48.152c-0.307-1.308-0.834-2.617-1.488-3.925C456.813,15.213,362.093,0.707,351-1
				c-2.388,0-4.762,0.848-6.566,2.226C286.374,22.425,225.157,22.698,167.808,2.05c-1.849-1.988-4.474-2.854-7.102-2.197
				C149.613,1.56,54.893,16.067,27.587,45.08c-0.144,0.144-0.281,0.291-0.414,0.441c-0.149,0.137-0.301,0.274-0.44,0.413
				c-0.055,0.109-0.171,0.306-0.335,0.578c-0.182,0.267-0.345,0.54-0.493,0.819c-3.272,5.454-14.396,24.97-6.852,43.83
				c5.12,13.653,17.92,23.04,38.4,28.16c0,0,0.365,0,0.853,0l52.053,7.436v240.031c0,57.032,32.791,106.291,80.572,130.003
				c0.256,0.129,0.514,0.255,0.771,0.383c0.689,0.337,1.381,0.666,2.076,0.992c7.163,3.414,14.639,6.302,22.393,8.569
				c0.3,0,0.599,0,0.899,0c12.215,3.332,25.072,5.12,38.354,5.12c13.272,0,26.119-1.786,38.33-5.12c0.041,0,0.07,0,0.07,0
				c0.175-0.05,0.346-0.109,0.52-0.16c61.288-17.017,106.29-73.346,107-141.494V126.756l52.053-7.436c1.05,0,2.092-0.3,3.024-0.815
				c18.713-5.27,30.514-14.38,35.376-27.345C498.896,73.42,489.476,54.513,485.608,48.152z M449.602,50.465
				c-2.59,2.071-4.76,4.533-6.442,7.415c-9.451,14.177-6.226,34.073-2.78,46.113l-43.781,6.486
				c-38.841-24.61-47.489-51.509-46.937-71.405c0.388-9.356,2.798-16.835,4.751-21.3c25.6,4.267,75.093,14.507,102.4,28.16
				C454.073,47.108,451.706,48.655,449.602,50.465z M332.227,22.893c-10.777,17.242-31.233,37.506-59.837,43.483
				c-0.211,0.044-0.423,0.083-0.635,0.126c-0.83,0.167-1.665,0.324-2.508,0.466c-0.389,0.065-0.782,0.121-1.173,0.18
				c-0.702,0.108-1.405,0.215-2.116,0.305c-0.545,0.069-1.097,0.122-1.647,0.181c-0.587,0.063-1.171,0.131-1.765,0.182
				c-0.72,0.061-1.449,0.101-2.177,0.143c-0.447,0.026-0.888,0.063-1.338,0.083c-1.192,0.051-2.393,0.079-3.605,0.079
				c-1.226,0-2.441-0.028-3.646-0.081c-0.01,0-0.02-0.001-0.03-0.002c-33.947-1.53-59.802-24.026-72.936-44.858
				C229.691,37.392,282.221,37.302,332.227,22.893z M35.267,85.187c-4.213-9.269-0.107-19.363,3.284-25.366
				c4.703,0.457,8.537,1.595,11.609,3.423c1.641,1.109,2.936,2.449,3.88,4.023c5.973,8.533,2.56,23.893,0,33.28
				C43.8,97.133,37.827,92.013,35.267,85.187z M68.547,58.733c-0.923-1.385-1.916-2.7-2.981-3.943
				c-2.704-3.422-6.217-6.127-10.453-8.116c26.809-14.16,74.688-24.236,100.62-28.637c1.252,2.865,2.73,5.827,4.427,8.836
				c4.785,18.956,2.985,52.782-44.368,83.707l-44.686-6.62C74.52,92.013,77.933,72.387,68.547,58.733z M130.738,395.901
				c-0.265-1.167-0.52-2.337-0.751-3.515c46.08,1.707,82.773,39.253,82.773,85.333c0,3.413-0.853,5.973-0.853,9.387
				c-28.661-10.529-52.508-30.682-67.424-56.333C138.292,420.041,133.614,408.321,130.738,395.901z M228.751,492.009
				c0.713-4.713,1.076-9.324,1.076-14.289c0-56.224-45.923-102.239-102.112-102.396c-0.185-2.822-0.289-5.667-0.289-8.537v-34.133
				h42.667c5.12,0,8.533-3.413,8.533-8.533s-3.413-8.533-8.533-8.533h-42.667V298.52h25.6c5.12,0,8.533-3.413,8.533-8.533
				s-3.413-8.533-8.533-8.533h-25.6V124.723c28.791-19.59,42.374-40.417,47.931-59.156c1.544-4.913,2.541-9.691,3.132-14.294
				c16.813,17.362,40.79,31.916,70.687,33.719c0.13,0.008,0.259,0.017,0.39,0.024c0.787,0.044,1.578,0.079,2.373,0.105
				c0.201,0.007,0.402,0.017,0.604,0.023c0.956,0.026,1.917,0.043,2.884,0.043c0.968,0,1.928-0.016,2.883-0.043
				c0.205-0.006,0.408-0.016,0.612-0.023c0.789-0.026,1.574-0.06,2.355-0.105c0.141-0.008,0.282-0.018,0.423-0.027
				c24.023-1.456,44.062-11.164,59.613-23.947c4.201-3.401,8.13-7.041,11.767-10.843c1.707,21.333,13.653,48.64,50.347,73.387v243.2
				c0,2.87-0.104,5.715-0.289,8.537c-56.188,0.157-102.112,46.173-102.112,102.396c0,4.89,0.349,9.438,1.041,14.297
				c-8.592,1.811-17.501,2.77-26.641,2.77C246.275,494.787,237.353,493.825,228.751,492.009z M298.093,477.72
				c0-46.08,36.693-83.627,82.773-85.333c-9.387,43.52-40.107,79.36-81.92,94.72C298.093,483.693,298.093,481.133,298.093,477.72z
				 M475.587,85.187c-1.707,6.827-8.533,11.947-18.773,15.36c-2.56-10.24-5.12-24.747,0-33.28c0,0,0-0.001,0-0.001
				c2.824-4.236,7.992-6.714,15.489-7.445C475.693,65.824,479.8,75.918,475.587,85.187z"/>
		</g>
	</g>
</g>
</svg>