<?xml version="1.0" encoding="iso-8859-1"?>
<!-- Uploaded to: SVG Repo, www.svgrepo.com, Generator: SVG Repo Mixer Tools -->
<svg fill="#000000" height="800px" width="800px" version="1.1" id="Layer_1" xmlns="http://www.w3.org/2000/svg" xmlns:xlink="http://www.w3.org/1999/xlink" 
	 viewBox="0 0 512.056 512.056" xml:space="preserve">
<g transform="translate(-1)">
	<g>
		<g>
			<path d="M513.056,365.971c0-24.014-6.4-47.176-19.204-67.82c-23.331-37.61-61.343-63.465-110.78-63.465h-22.219
				c-2.884-10.743-8.153-22.428-16.756-34.036c-24.043-32.441-66.637-51.298-129.707-51.298c-7.593-0.019-19.778,0.593-35.048,2.432
				c-25.078,3.02-50.158,8.496-73.806,17.119c-6.598,2.406-12.987,5.031-19.157,7.875v-52.404
				c24.858-8.784,42.667-32.474,42.667-60.346c0-35.355-28.645-64-64-64s-64,28.645-64,64c0,27.872,17.808,51.562,42.667,60.346
				v78.823c-18.718,15.985-22.098,31.904-20.44,60.875c0.808,14.124,0.388,19.679-2.419,25.883
				c-8.397,18.548-14.944,37.102-18.82,54.958c-5.863,27.065,13.95,63.994,41.82,77.002c-0.087,1.583-0.141,3.175-0.141,4.78
				c0,47.131,38.202,85.333,85.333,85.333s85.333-38.202,85.333-85.333c0-0.003,0-0.006,0-0.009h85.334c0,0.003,0,0.006,0,0.009
				c0,47.131,38.202,85.333,85.333,85.333s85.333-38.202,85.333-85.333c0-0.086-0.006-0.17-0.006-0.255
				C495.574,423.368,513.056,389.138,513.056,365.971z M65.045,42.695c11.791,0,21.333,9.542,21.333,21.333
				s-9.542,21.333-21.333,21.333s-21.333-9.542-21.333-21.333S53.254,42.695,65.045,42.695z M129.045,469.361
				c-23.567,0-42.667-19.099-42.667-42.667c0-4.132,0.599-8.121,1.694-11.899c0.367-0.743,0.707-1.504,0.989-2.298
				c5.218-14.681,17.79-25.258,32.793-27.854c0.185-0.031,0.368-0.07,0.554-0.099c0.19-0.03,0.382-0.052,0.572-0.08
				c0.506-0.072,1.014-0.14,1.526-0.194c0.127-0.014,0.254-0.025,0.382-0.038c0.644-0.062,1.291-0.114,1.942-0.148
				c0.009,0,0.018-0.001,0.027-0.002c0.724-0.037,1.454-0.055,2.187-0.055c1.428,0,2.838,0.073,4.229,0.21
				c0.082,0.008,0.165,0.016,0.247,0.025c0.589,0.061,1.174,0.138,1.756,0.223c0.117,0.017,0.235,0.031,0.352,0.049
				c0.58,0.09,1.155,0.195,1.727,0.308c0.512,0.103,1.021,0.216,1.527,0.337c0.024,0.006,0.048,0.011,0.072,0.017
				c13.787,3.336,25.173,13.513,30.073,27.3c0.282,0.794,0.622,1.555,0.989,2.298c1.095,3.778,1.694,7.768,1.694,11.899
				C171.712,450.262,152.612,469.361,129.045,469.361z M385.045,469.361c-23.567,0-42.667-19.099-42.667-42.667
				c0-4.132,0.599-8.121,1.694-11.899c0.364-0.738,0.702-1.494,0.983-2.283c5.26-14.763,17.915-25.37,33.001-27.906
				c0.116-0.019,0.231-0.044,0.348-0.062c0.195-0.031,0.392-0.054,0.587-0.082c0.502-0.071,1.006-0.139,1.513-0.192
				c0.128-0.014,0.257-0.026,0.386-0.038c0.643-0.062,1.288-0.114,1.939-0.147c0.01,0,0.019-0.001,0.029-0.002
				c0.724-0.037,1.453-0.055,2.187-0.055c1.428,0,2.838,0.073,4.229,0.21c0.082,0.008,0.165,0.016,0.247,0.025
				c0.589,0.061,1.174,0.138,1.756,0.223c0.117,0.017,0.235,0.031,0.352,0.049c0.58,0.09,1.155,0.195,1.728,0.308
				c0.512,0.103,1.021,0.216,1.527,0.337c0.024,0.006,0.048,0.011,0.072,0.017c13.787,3.336,25.173,13.513,30.073,27.3
				c0.282,0.794,0.622,1.555,0.989,2.298c1.095,3.778,1.694,7.768,1.694,11.899C427.712,450.262,408.612,469.361,385.045,469.361z
				 M465.519,379.469c-0.983,1.867-1.969,3.424-2.829,4.55h-3.76c-11.113-19.199-29.48-33.659-51.366-39.633
				c-0.012-0.003-0.024-0.007-0.037-0.01c-0.771-0.21-1.545-0.409-2.324-0.598c-0.506-0.124-1.015-0.237-1.524-0.352
				c-0.742-0.165-1.485-0.328-2.234-0.474c-0.948-0.186-1.9-0.356-2.858-0.51c-0.364-0.058-0.729-0.114-1.095-0.167
				c-2.592-0.383-5.219-0.647-7.874-0.789c-0.122-0.006-0.243-0.013-0.365-0.018c-1.393-0.068-2.791-0.115-4.199-0.115
				c-1.402,0-2.794,0.046-4.182,0.114c-0.147,0.007-0.294,0.015-0.442,0.022c-2.61,0.141-5.192,0.4-7.741,0.774
				c-0.428,0.062-0.854,0.127-1.279,0.195c-0.821,0.133-1.637,0.281-2.451,0.438c-0.974,0.186-1.939,0.393-2.901,0.611
				c-0.347,0.08-0.696,0.156-1.042,0.24c-22.981,5.529-42.327,20.348-53.859,40.272H202.93c-11.113-19.2-29.481-33.66-51.367-39.634
				c-0.012-0.003-0.023-0.007-0.035-0.01c-0.771-0.21-1.545-0.409-2.325-0.598c-0.506-0.124-1.015-0.237-1.523-0.352
				c-0.742-0.165-1.485-0.328-2.234-0.474c-0.948-0.186-1.9-0.356-2.858-0.51c-0.364-0.058-0.729-0.114-1.095-0.167
				c-2.592-0.383-5.219-0.647-7.874-0.789c-0.122-0.006-0.243-0.013-0.365-0.018c-1.393-0.068-2.791-0.115-4.199-0.115
				c-1.415,0-2.821,0.046-4.222,0.115c-0.111,0.005-0.221,0.01-0.332,0.016c-1.361,0.073-2.716,0.172-4.062,0.309
				c-0.148,0.015-0.295,0.035-0.443,0.05c-1.102,0.118-2.198,0.258-3.289,0.418c-0.346,0.05-0.693,0.097-1.037,0.151
				c-1.054,0.168-2.103,0.355-3.145,0.562c-0.625,0.123-1.246,0.259-1.866,0.395c-0.407,0.09-0.813,0.185-1.218,0.281
				c-21.774,5.12-40.321,18.569-52.107,36.813c-7.431-6.472-14.993-20.107-13.606-26.508c3.167-14.587,8.745-30.397,15.993-46.406
				c6.507-14.379,7.329-25.244,6.146-45.913c-1.028-17.974-0.151-21.609,7.502-27.591c12.995-10.167,28.774-18.491,46.78-25.056
				c20.27-7.391,42.238-12.188,64.291-14.843c7.812-0.941,15.082-1.542,21.614-1.87c3.935-0.198,6.75-0.26,8.253-0.256
				c50.336,0,80.025,13.144,95.509,34.036c4.985,6.727,8.175,13.924,9.922,21.115c1.022,4.206,1.329,7.301,1.317,8.624
				c-0.21,11.774,9.402,21.558,21.332,21.558h40.683c33.023,0,58.359,17.234,74.522,43.289c8.55,13.786,12.795,29.148,12.795,45.33
				C470.389,367.364,468.332,374.126,465.519,379.469z"/>
			<path d="M257.045,256.028h-128c-11.782,0-21.333,9.551-21.333,21.333c0,11.782,9.551,21.333,21.333,21.333h128
				c11.782,0,21.333-9.551,21.333-21.333C278.378,265.579,268.827,256.028,257.045,256.028z"/>
		</g>
	</g>
</g>
</svg>