<?xml version="1.0" encoding="UTF-8" standalone="no"?>
<!-- Uploaded to: SVG Repo, www.svgrepo.com, Generator: SVG Repo Mixer Tools -->
<svg width="800px" height="800px" viewBox="0 -2 65 65" version="1.1" xmlns="http://www.w3.org/2000/svg" xmlns:xlink="http://www.w3.org/1999/xlink" xmlns:sketch="http://www.bohemiancoding.com/sketch/ns">
    
    <title>Display</title>
    <desc>Created with Sketch.</desc>
    <defs>
</defs>
    <g id="Page-1" stroke="none" stroke-width="1" fill="none" fill-rule="evenodd" sketch:type="MSPage">
        <g id="Display" sketch:type="MSLayerGroup" transform="translate(2.000000, 1.000000)" stroke="#6B6C6E" stroke-width="2">
            <path d="M62,43.9 C62,45.1 61.1,46 59.9,46 L2,46 C0.9,46 -0.1,45.1 -0.1,43.9 L-0.1,2.1 C-0.1,0.9 0.8,0 2,0 L59.9,0 C61,0 62,0.9 62,2.1 L62,43.9 L62,43.9 Z" id="Shape" sketch:type="MSShapeGroup">
</path>
            <rect id="Rectangle-path" sketch:type="MSShapeGroup" x="4" y="4" width="54" height="32">
</rect>
            <path d="M39,47 L39,53.5 L43,56.8 C43,58 42,59 40.9,59 L21.2,59 C20,59 19.1,58 19.1,56.8 L23.1,53.5 L23.1,47" id="Shape" sketch:type="MSShapeGroup">
</path>
            <path d="M13.9,7.2 L7.7,13.5" id="Shape" sketch:type="MSShapeGroup">
</path>
            <path d="M20.1,8.3 L7.2,21.2" id="Shape" sketch:type="MSShapeGroup">
</path>
        </g>
    </g>
</svg>