<?xml version="1.0" encoding="iso-8859-1"?>
<!-- Uploaded to: SVG Repo, www.svgrepo.com, Generator: SVG Repo Mixer Tools -->
<svg fill="#000000" height="800px" width="800px" version="1.1" id="Layer_1" xmlns="http://www.w3.org/2000/svg" xmlns:xlink="http://www.w3.org/1999/xlink" 
	 viewBox="0 0 511.999 511.999" xml:space="preserve">
<g>
	<g>
		<path d="M456.601,402.306L337.673,214.082l62.893-165.557c1.961-5.162-0.43-10.955-5.461-13.23L319.163,0.932
			c-5.117-2.315-11.144-0.173-13.653,4.847l-49.511,99.032L206.49,5.779c-1.884-3.767-5.745-5.913-9.715-5.773
			c-1.325,0.046-2.66,0.347-3.938,0.926l-75.944,34.362c-5.029,2.276-7.422,8.07-5.461,13.23l62.894,165.556L55.399,402.306
			c-2.354,3.726-2.117,8.527,0.59,12.004c0.784,1.006,19.582,24.908,53.544,48.939c7.487,5.297,16.09,10.834,25.704,16.2
			c0.08,0.047,0.16,0.093,0.242,0.137c30.72,17.107,71.808,32.414,120.519,32.414H256c48.634,0,89.669-15.259,120.374-32.333
			c0.205-0.107,0.404-0.218,0.599-0.335c9.527-5.329,18.061-10.823,25.491-16.082c33.962-24.03,52.761-47.932,53.544-48.939
			C458.718,410.834,458.955,406.033,456.601,402.306z M319.708,24.114l21.453,9.707l-49.61,46.615L319.708,24.114z M266.449,132.696
			l95.31-89.555l15.783,7.142l-58.699,154.518h-52.394V132.696z M192.293,24.114l28.158,56.322l-49.61-46.615L192.293,24.114z
			 M134.456,50.284l15.785-7.142l95.31,89.555v72.105h-52.394L134.456,50.284z M376.48,455.306l-67.626-157.881
			c-2.273-5.305-8.411-7.76-13.719-5.491c-5.304,2.273-7.764,8.414-5.491,13.719l68.534,160
			c-25.521,13.09-56.406,23.442-91.729,25.18V346.636c0-5.77-4.679-10.449-10.449-10.449c-5.771,0-10.449,4.679-10.449,10.449
			v144.202c-35.886-1.781-66.969-12.512-91.728-25.145l68.531-160.039c2.272-5.305-0.187-11.447-5.492-13.718
			c-5.308-2.272-11.448,0.187-13.718,5.492L135.507,455.38c-4.789-2.956-9.25-5.914-13.341-8.794
			c-22.273-15.676-37.73-31.536-44.988-39.626l114.527-181.261h128.586l114.524,181.257
			C426.219,416.522,406.087,436.967,376.48,455.306z"/>
	</g>
</g>
<g>
	<g>
		<path d="M256.001,297.705c-5.771,0-10.449,4.678-10.449,10.449v4.678c0,5.77,4.678,10.449,10.449,10.449
			c5.77,0,10.449-4.679,10.449-10.449v-4.678C266.45,302.385,261.771,297.705,256.001,297.705z"/>
	</g>
</g>
</svg>