<?xml version="1.0" encoding="iso-8859-1"?>
<!-- Uploaded to: SVG Repo, www.svgrepo.com, Generator: SVG Repo Mixer Tools -->
<svg fill="#000000" height="800px" width="800px" version="1.1" id="Layer_1" xmlns="http://www.w3.org/2000/svg" xmlns:xlink="http://www.w3.org/1999/xlink" 
	 viewBox="0 0 512.144 512.144" xml:space="preserve">
<g>
	<g>
		<path d="M397.769,370.598l5.76-3.733c2.56-1.6,4.267-4.267,4.8-7.253c8.533-52.373-62.187-119.04-70.293-126.507
			c-1.6-1.493-3.733-2.453-5.867-2.773c-2.773-0.64-5.013-2.453-6.293-4.907c-1.92-3.84-4.267-16.213,14.08-46.507
			c42.453-69.973-2.027-106.347-2.453-106.667c-0.32-0.213-0.64-0.32-0.853-0.533l9.92-59.307c0.96-5.76-2.987-11.307-8.747-12.267
			c-5.76-0.96-11.307,2.987-12.267,8.747l-10.453,61.973c-32.32,3.093-49.707,11.52-58.987,19.2
			c-9.28-7.787-26.667-16.107-59.093-19.093L186.569,8.998c-0.96-5.76-6.507-9.707-12.267-8.747s-9.707,6.507-8.747,12.267
			l9.92,59.307c-0.32,0.213-0.64,0.32-0.853,0.533c-0.427,0.32-45.013,36.8-2.453,106.667c18.133,29.973,16,42.347,14.187,46.293
			c-1.28,2.56-3.627,4.48-6.4,5.12c-2.24,0.32-4.267,1.28-5.867,2.773c-8.107,7.467-78.827,74.133-70.293,126.507
			c0.427,2.987,2.24,5.76,4.8,7.36l5.76,3.733c-19.84,22.507-41.173,64-20.267,108.8c0.96,2.027,2.453,3.627,4.373,4.693
			c2.027,1.067,49.707,27.84,157.653,27.84s155.627-26.773,157.547-27.947c1.92-1.067,3.413-2.773,4.373-4.693
			C438.942,434.598,417.716,393.105,397.769,370.598z M400.116,467.238c-11.307,5.333-56.32,23.573-144,23.573
			c-87.04,0-132.693-18.347-144.107-23.68c-20.267-49.28,24.32-88.533,26.24-90.133c4.48-3.84,5.013-10.56,1.173-15.04
			c-0.64-0.747-1.493-1.493-2.347-2.027l-12.693-8.107c-1.067-33.707,42.24-82.133,62.08-101.013c8.32-2.347,15.253-8.213,18.987-16
			c7.573-15.787,2.667-37.547-15.04-66.88c-26.88-44.373-11.52-68.907-5.013-76.48c51.84,2.667,60.267,18.453,60.373,18.453
			c1.173,4.693,5.333,8,10.133,8.213c4.693,0.107,8.96-2.88,10.133-7.467c0.107-0.213,7.893-16.427,60.587-19.2
			c6.507,7.467,21.973,32.107-5.013,76.48c-17.707,29.227-22.72,51.093-15.147,66.773c3.733,7.787,10.667,13.653,18.987,16
			c19.84,18.773,63.147,67.307,62.08,101.013l-12.693,8.107c-4.907,3.2-6.4,9.813-3.2,14.72c0.533,0.853,1.28,1.707,2.027,2.347
			C374.409,377.425,420.596,417.638,400.116,467.238z"/>
	</g>
</g>
</svg>