<?xml version="1.0" ?><!-- Uploaded to: SVG Repo, www.svgrepo.com, Generator: SVG Repo Mixer Tools -->
<svg width="800px" height="800px" viewBox="0 0 100 100" data-name="Layer 1" id="Layer_1" xmlns="http://www.w3.org/2000/svg"><defs><style>.cls-1{fill:#1d1d1b;}</style></defs><rect class="cls-1" height="1" width="41.85" x="26.2" y="82.35"/><rect class="cls-1" height="1" width="41.85" x="26.2" y="84.98"/><rect class="cls-1" height="1" transform="translate(-2.22 4.87) rotate(-8.87)" width="16.73" x="21.92" y="16.27"/><rect class="cls-1" height="1" transform="translate(-2.53 5.48) rotate(-8.87)" width="16.73" x="25.66" y="18.54"/><rect class="cls-1" height="1" transform="translate(-2.75 6.09) rotate(-8.87)" width="16.73" x="29.5" y="20.25"/><rect class="cls-1" height="1" width="41.85" x="26.2" y="87.62"/><path class="cls-1" d="M96.07,9.87,85.79,11.25l-.75-3a.5.5,0,0,0-.58-.37L81,8.49l-.22-.84a.5.5,0,0,0-.57-.37l-12,2.2-.48-2.23a.48.48,0,0,0-.43-.39L54.58,5.41h-.14l-48,8.31A3.71,3.71,0,0,0,4,15.35a3.94,3.94,0,0,0-.54,3L6.83,32.75a.54.54,0,0,0,.21.3l4.4,2.89a.52.52,0,0,0,.36.08l11.85-2,5.66,3.15L35.09,63,30.4,66.76a.49.49,0,0,0-.19.39v3.06h-1a.52.52,0,0,0-.35.14l-3,2.89a.52.52,0,0,0-.16.36v2.62H24.06a.51.51,0,0,0-.3.1L20.22,79a.51.51,0,0,0-.2.4V91a.5.5,0,0,0,.17.38l3.54,3.12a.5.5,0,0,0,.33.12H70a.5.5,0,0,0,.33-.12l3.54-3.12a.5.5,0,0,0,.17-.38V79.39a.51.51,0,0,0-.2-.4l-3.54-2.67a.54.54,0,0,0-.3-.1H68.55v-.5a.48.48,0,0,0-.17-.37l-6.23-5.52a9.78,9.78,0,0,0,.5-3.07,1.78,1.78,0,0,0-.52-1.28,1.58,1.58,0,0,0-1.21-.5H59l-4.13-3.46-4-17.76,2.77.27h.17c3.69-1,5.48-2.08,5.63-3.55.11-1-.64-1.74-1.5-2.56a12.56,12.56,0,0,1-1.81-2,11.43,11.43,0,0,1-1.66-7.38l.42-.09v-.05L60.26,28a.61.61,0,0,0,.18-.05l10.19-5a.49.49,0,0,0,.27-.55l-.35-1.67,12.56-2.17a.49.49,0,0,0,.33-.23.49.49,0,0,0,.07-.39l-.21-.78,3.28-.63a.45.45,0,0,0,.32-.22.5.5,0,0,0,.07-.39L86,12.23l10.17-1.37a.51.51,0,0,0,.43-.56A.5.5,0,0,0,96.07,9.87ZM4.79,19.66l4.86-1.07a1.29,1.29,0,0,1,1.5,1l2.25,8.37A1.46,1.46,0,0,1,13.24,29a1.32,1.32,0,0,1-.84.59l-5,1ZM31,40.21,33.07,40a.83.83,0,0,1,.9.71.9.9,0,0,1-.17.68.8.8,0,0,1-.53.33l-1.87.26Zm1.27,5.64,2.37-.29a.83.83,0,0,1,.9.71.9.9,0,0,1-.16.68.8.8,0,0,1-.54.33l-2.18.31Zm1.18,5.28,2.46-.3a.83.83,0,0,1,.9.72.92.92,0,0,1-.16.68.84.84,0,0,1-.54.32l-2.27.32Zm1.19,5.28,2.54-.31a.83.83,0,0,1,.9.71.9.9,0,0,1-.16.68.82.82,0,0,1-.54.33L35,58.15ZM69.87,77.22l3.21,2.42V90.75l-3.23,2.84H24.25L21,90.75V79.64l3.21-2.42H25.7v1.06a.5.5,0,0,0,.5.5H68.05a.5.5,0,0,0,.5-.5V77.22ZM67.55,76v1.83H26.7v-4l2.71-2.61h.8v4.51a.5.5,0,0,0,.5.5h22.8a9.14,9.14,0,0,0,8.25-5.4ZM60.92,66a.73.73,0,0,1,.5.21.79.79,0,0,1,.23.57,8.32,8.32,0,0,1-8.14,8.46H31.21V67.39l4.51-3.67L40.81,66a.48.48,0,0,0,.21,0ZM51.13,49.49l-2.2.68a.77.77,0,0,1-.61-.07.83.83,0,0,1-.4-.54.86.86,0,0,1,.54-1.05l2.28-.74Zm4.17-13a13.82,13.82,0,0,0,1.94,2.16c.8.77,1.25,1.22,1.19,1.73S57.68,42,53.64,43l-3.37-.33a.51.51,0,0,0-.42.17.47.47,0,0,0-.11.44l.78,3.47-2.37.77A1.89,1.89,0,0,0,47.83,51a1.8,1.8,0,0,0,.87.23,2,2,0,0,0,.53-.08l2.12-.66,1,4.29-2.46.76a.77.77,0,0,1-.61-.07.84.84,0,0,1-.41-.54.88.88,0,0,1,.55-1l2.5-.82-.31-.95-2.5.82a1.88,1.88,0,0,0-.32,3.41,1.69,1.69,0,0,0,.87.23,1.57,1.57,0,0,0,.52-.08l2.39-.73,1.4,6.17a.53.53,0,0,0,.16.28L57.46,65l-16.34.09-5-2.3-.82-3.66,2.27-.32a1.82,1.82,0,0,0,1.2-.72,1.92,1.92,0,0,0,.35-1.43,1.82,1.82,0,0,0-2-1.55l-2.6.32,0,.36-.44-1.94,2.19-.31a1.79,1.79,0,0,0,1.2-.72,1.92,1.92,0,0,0,.35-1.43,1.82,1.82,0,0,0-2-1.55l-2.56.31-.35-1.59,2.1-.29a1.82,1.82,0,0,0,1.2-.72,1.92,1.92,0,0,0,.35-1.43,1.83,1.83,0,0,0-2-1.55l-2.47.3-.44-1.95,1.79-.25a1.85,1.85,0,0,0,1.2-.72A1.92,1.92,0,0,0,35,40.52,1.82,1.82,0,0,0,33,39l-2.16.26-.56-2.48a.47.47,0,0,0-.24-.32l-6-3.35a.53.53,0,0,0-.33,0L11.83,35,7.76,32.32l-.17-.72,5-1a2.29,2.29,0,0,0,1.49-1.05,2.39,2.39,0,0,0,.28-1.9l-2.24-8.37a2.29,2.29,0,0,0-2.69-1.67L4.56,18.68l-.12-.5a2.9,2.9,0,0,1,.4-2.28,2.7,2.7,0,0,1,1.78-1.18L49.55,7.28l1.2,5.89-1.32.34-3.54-1.7a.52.52,0,0,0-.3-.05L20.14,15.89a2.73,2.73,0,0,0-1.82,1.17,2.91,2.91,0,0,0-.43,2.26l1.88,8.49a4.37,4.37,0,0,0,4.88,3.44l8-1.22,3.5,1.62,1.71,7.4A5.89,5.89,0,0,0,45,43.68l2.78-.6a6.2,6.2,0,0,0,4.64-7.36L50,24.31l2.41-2.84,1.24,6.11a.46.46,0,0,0-.18.33A12.72,12.72,0,0,0,55.3,36.48Zm-3.91-.56a5.21,5.21,0,0,1-3.87,6.19l-2.78.6a5,5,0,0,1-5.88-3.88L37.1,31.18a.5.5,0,0,0-.28-.34L33,29.06a.55.55,0,0,0-.28,0L24.5,30.27a3.39,3.39,0,0,1-3.75-2.68L18.86,19.1a1.93,1.93,0,0,1,.28-1.48,1.78,1.78,0,0,1,1.16-.75l25.3-4.1,3.57,1.72a.49.49,0,0,0,.34,0L51,14.15l1.23,6.07-3.07,3.63a.49.49,0,0,0-.11.42ZM50.54,7.11l4-.7.12,0,4.2,20.68-4.19.3ZM60.09,27h-.22L55.7,6.55,66.78,7.81l3.06,14.41Zm8.28-16.56L70.8,10,73,19.29l-2.68.46ZM74,19.12,71.79,9.83l8.13-1.48,2.48,9.32Zm9-2.93L81.25,9.46l2.93-.53,1.69,6.72Z"/></svg>