<?xml version="1.0" ?>
<!-- Uploaded to: SVG Repo, www.svgrepo.com, Generator: SVG Repo Mixer Tools -->
<svg fill="#000000" width="800px" height="800px" viewBox="0 0 100 100" version="1.1" xml:space="preserve" xmlns="http://www.w3.org/2000/svg" xmlns:xlink="http://www.w3.org/1999/xlink">
<g id="store"/>
<g id="groceries"/>
<g id="fruits"/>
<g id="bakery"/>
<g id="hygiene_product"/>
<g id="detergent">
<g>
<path d="M56,25.2l-3.6-0.7c-0.8-0.2-1.4-0.9-1.4-1.7c0-1.8-1.3-3.3-3-3.7V18c0-1.7-1.3-3-3-3h-1V7c0-1.7-1.3-3-3-3H29    c-1.7,0-3,1.3-3,3v8h-1c-1.7,0-3,1.3-3,3v1.1c-1.7,0.3-3,1.9-3,3.7v69.5c0,2.1,1.7,3.7,3.7,3.7h54.5c2.1,0,3.7-1.7,3.7-3.7V55.7    C81,40.9,70.5,28.1,56,25.2z M28,7c0-0.6,0.4-1,1-1h12c0.6,0,1,0.4,1,1v8H28V7z M24,18c0-0.6,0.4-1,1-1h2h16h2c0.6,0,1,0.4,1,1v1    H24V18z M79,92.3c0,1-0.8,1.7-1.7,1.7H22.7c-1,0-1.7-0.8-1.7-1.7V22.7c0-1,0.8-1.7,1.7-1.7H23h24h0.3c1,0,1.7,0.8,1.7,1.7    c0,1.8,1.3,3.3,3,3.7l3.6,0.7C69.1,29.8,79,41.9,79,55.7V92.3z"/>
<path d="M54.4,31.7L50.2,31c-0.3,0-0.6,0-0.8,0.2C49.1,31.4,49,31.7,49,32c0,13.8,11.2,25,25,25c0.6,0,1-0.4,1-1    C75,43.9,66.4,33.7,54.4,31.7z M51,33.2l3.1,0.5C64.7,35.5,72.5,44.3,73,55C61.2,54.5,51.6,45,51,33.2z"/>
<path d="M70,61c-13.8,0-25-11.2-25-25c0-2.8-2.2-5-5-5H30c-2.8,0-5,2.2-5,5v49c0,2.8,2.2,5,5,5h40c2.8,0,5-2.2,5-5V66    C75,63.2,72.8,61,70,61z M73,85c0,1.7-1.3,3-3,3H30c-1.7,0-3-1.3-3-3V36c0-1.7,1.3-3,3-3h10c1.7,0,3,1.3,3,3c0,14.9,12.1,27,27,27    c1.7,0,3,1.3,3,3V85z"/>
</g>
</g>
<g id="cooking_oil"/>
<g id="snacks"/>
<g id="canned_food"/>
<g id="wheat_flour"/>
<g id="milk_powder"/>
<g id="coffee_powder"/>
<g id="tea_bag"/>
<g id="meat"/>
<g id="chicken"/>
<g id="cart"/>
<g id="sausage"/>
<g id="egg"/>
<g id="drink"/>
<g id="vegetable"/>
</svg>