<?xml version="1.0" encoding="iso-8859-1"?>
<!-- Uploaded to: SVG Repo, www.svgrepo.com, Generator: SVG Repo Mixer Tools -->
<!DOCTYPE svg PUBLIC "-//W3C//DTD SVG 1.1//EN" "http://www.w3.org/Graphics/SVG/1.1/DTD/svg11.dtd">
<svg fill="#000000" version="1.1" id="Capa_1" xmlns="http://www.w3.org/2000/svg" xmlns:xlink="http://www.w3.org/1999/xlink" 
	 width="800px" height="800px" viewBox="0 0 527.417 527.416"
	 xml:space="preserve">
<g>
	<g>
		<path d="M238.468,330.333c7.188,0,13.037-5.849,13.037-13.038c0-7.188-5.85-13.033-13.037-13.033
			c-7.188,0-13.037,5.846-13.037,13.033C225.431,324.484,231.28,330.333,238.468,330.333z M238.468,311.475
			c3.211,0,5.824,2.609,5.824,5.82c0,3.212-2.612,5.824-5.824,5.824c-3.211,0-5.823-2.612-5.823-5.824
			C232.645,314.084,235.257,311.475,238.468,311.475z"/>
		<path d="M238.468,369.102c7.188,0,13.037-5.849,13.037-13.035c0-7.188-5.85-13.039-13.037-13.039
			c-7.188,0-13.037,5.851-13.037,13.039C225.431,363.253,231.28,369.102,238.468,369.102z M238.468,350.242
			c3.211,0,5.824,2.611,5.824,5.822s-2.612,5.825-5.824,5.825c-3.211,0-5.823-2.614-5.823-5.825S235.257,350.242,238.468,350.242z"
			/>
		<path d="M238.468,407.873c7.188,0,13.037-5.849,13.037-13.035c0-7.188-5.85-13.038-13.037-13.038
			c-7.188,0-13.037,5.851-13.037,13.038C225.431,402.024,231.28,407.873,238.468,407.873z M238.468,389.012
			c3.211,0,5.824,2.614,5.824,5.826c0,3.211-2.612,5.823-5.824,5.823c-3.211,0-5.823-2.612-5.823-5.823
			C232.645,391.626,235.257,389.012,238.468,389.012z"/>
		<path d="M238.468,157.164c7.188,0,13.037-5.848,13.037-13.036s-5.85-13.037-13.037-13.037c-7.188,0-13.037,5.849-13.037,13.037
			S231.28,157.164,238.468,157.164z M238.468,138.305c3.211,0,5.824,2.612,5.824,5.823c0,3.21-2.612,5.823-5.824,5.823
			c-3.211,0-5.823-2.612-5.823-5.823S235.257,138.305,238.468,138.305z"/>
		<path d="M238.468,195.934c7.188,0,13.037-5.847,13.037-13.035s-5.85-13.037-13.037-13.037c-7.188,0-13.037,5.849-13.037,13.037
			C225.431,190.086,231.28,195.934,238.468,195.934z M238.468,177.072c3.211,0,5.824,2.613,5.824,5.824s-2.612,5.823-5.824,5.823
			c-3.211,0-5.823-2.612-5.823-5.823S235.257,177.072,238.468,177.072z"/>
		<path d="M238.468,234.705c7.188,0,13.037-5.849,13.037-13.038c0-7.188-5.85-13.035-13.037-13.035
			c-7.188,0-13.037,5.848-13.037,13.035C225.431,228.856,231.28,234.705,238.468,234.705z M238.468,215.842
			c3.211,0,5.824,2.613,5.824,5.824s-2.612,5.824-5.824,5.824c-3.211,0-5.823-2.613-5.823-5.824S235.257,215.842,238.468,215.842z"
			/>
		<path d="M238.468,446.642c7.188,0,13.037-5.847,13.037-13.032c0-7.189-5.85-13.038-13.037-13.038
			c-7.188,0-13.037,5.849-13.037,13.038C225.431,440.795,231.28,446.642,238.468,446.642z M238.468,427.784
			c3.211,0,5.824,2.612,5.824,5.823s-2.612,5.821-5.824,5.821c-3.211,0-5.823-2.61-5.823-5.821S235.257,427.784,238.468,427.784z"/>
		<path d="M238.468,485.414c7.188,0,13.037-5.849,13.037-13.036c0-7.187-5.85-13.036-13.037-13.036
			c-7.188,0-13.037,5.851-13.037,13.036C225.431,479.565,231.28,485.414,238.468,485.414z M238.468,466.553
			c3.211,0,5.824,2.614,5.824,5.825s-2.612,5.821-5.824,5.821c-3.211,0-5.823-2.61-5.823-5.821S235.257,466.553,238.468,466.553z"/>
		<path d="M153.029,376.493c0.551,0.31,1.165,0.476,1.778,0.476c1.295,0,2.499-0.698,3.143-1.823l31.922-56.062
			c0.982-1.73,0.377-3.938-1.351-4.922c-0.543-0.311-1.16-0.473-1.783-0.473c-1.297,0-2.499,0.697-3.135,1.822l-31.926,56.06
			C150.692,373.301,151.298,375.51,153.029,376.493z"/>
		<path d="M343.819,315.512c-0.64-1.123-1.843-1.822-3.14-1.822c-0.623,0-1.238,0.164-1.78,0.475
			c-0.839,0.479-1.439,1.252-1.694,2.18c-0.254,0.932-0.132,1.903,0.346,2.739l31.925,56.062c0.643,1.125,1.845,1.821,3.138,1.821
			c0.62,0,1.235-0.162,1.78-0.474c0.839-0.479,1.438-1.252,1.694-2.184c0.254-0.931,0.132-1.901-0.346-2.737L343.819,315.512z"/>
		<path d="M516.22,327.93l-23.28-51.923c-0.896-2.003-90.088-201.082-122.24-272.608c-0.063-0.143-0.127-0.309-0.193-0.488
			C370.092,1.822,369.402,0,367.131,0H248.055c-57.829,0.002-87.184,0.005-87.261,0.008c-1.67,0-2.882,0.735-3.502,2.124
			L11.2,327.93c-0.396,0.879-0.425,1.859-0.081,2.762c0.344,0.899,1.018,1.613,1.896,2.004l73.12,32.788
			c0.871,0.391,1.874,0.418,2.755,0.079c0.9-0.343,1.614-1.017,2.011-1.896l51.327-114.464l0.004,32.34l-29.673,241.824
			c-0.127,1.025,0.193,2.061,0.879,2.833c0.688,0.771,1.673,1.216,2.7,1.216h295.146c1.036,0,2.021-0.445,2.698-1.216
			c0.688-0.772,1.009-1.808,0.882-2.833l-29.673-241.77v-32.396l51.33,114.469c0.394,0.879,1.106,1.552,2.008,1.895
			c0.884,0.34,1.896,0.311,2.762-0.08l73.12-32.784C516.222,331.884,517.032,329.743,516.22,327.93z M104.063,316.682l-18.27,40.746
			l-66.538-29.837l18.27-40.745L104.063,316.682z M113.71,295.169l-6.698,14.933l-66.537-29.838l6.699-14.929L113.71,295.169z
			 M251.659,21.341V7.208h24.1V21.34L251.659,21.341L251.659,21.341z M508.161,327.591l-66.533,29.837l-18.271-40.746l66.538-29.836
			L508.161,327.591z M486.947,280.264l-66.538,29.838l-6.696-14.933l66.538-29.834L486.947,280.264z M284.203,249.228v28.956
			h-40.987v-28.956H284.203z M260.104,285.396V520.2H120.21l28.815-234.804H260.104L260.104,285.396z M377.98,249.228v28.956
			h-36.874v-28.956H377.98z M333.892,249.228v28.956h-42.477v-28.956H333.892z M270.223,114.93l31.002-44.453v44.453H270.223z
			 M367.234,85.549c0.104,1.456,10.248,145.57,10.271,145.939l0.646,10.524H267.316v-119.87h37.515c1.988,0,3.604-1.618,3.604-3.607
			V62.608h35.031c1.987,0,3.604-1.618,3.604-3.607V7.208h17.432l112.792,251.545l-66.539,29.835
			c-2.364-5.266-25.845-57.585-26.766-59.704l-9.561-143.816C373.935,79.882,366.827,79.771,367.234,85.549z M179.945,7.208v51.793
			c0,1.989,1.619,3.607,3.606,3.607h35.03v55.927c0,1.989,1.617,3.607,3.605,3.607h37.512v119.87H150.053
			c0.093-2.17,0.468-11.029,0.483-14.122l9.463-142.344c0.413-5.863-6.618-5.917-7.194-0.48
			c-8.643,130.307-9.469,142.937-9.547,144.188l-26.599,59.333l-66.54-29.835L162.918,7.208H179.945z M225.796,114.93V70.477
			l31.003,44.453H225.796z M263.509,111.946L190.46,7.208h53.986v17.74c0,1.988,1.618,3.605,3.605,3.605h31.313
			c1.988,0,3.606-1.617,3.606-3.605V7.208h53.58L263.509,111.946z M187.158,55.395V15.079l28.117,40.316H187.158z M149.441,278.184
			v-28.955h86.562v28.955H149.441z M267.317,285.396h111.079L407.211,520.2H267.317V285.396z M311.743,55.395l28.118-40.316v40.316
			H311.743z"/>
	</g>
</g>
</svg>