<?xml version="1.0" encoding="iso-8859-1"?>
<!-- Uploaded to: SVG Repo, www.svgrepo.com, Generator: SVG Repo Mixer Tools -->
<svg fill="#000000" height="800px" width="800px" version="1.1" id="Layer_1" xmlns="http://www.w3.org/2000/svg" xmlns:xlink="http://www.w3.org/1999/xlink" 
	 viewBox="0 0 503.467 503.467" xml:space="preserve">
<g transform="translate(1 1)">
	<g>
		<g>
			<path d="M255,75.8c-139.093,0-247.467,56.32-247.467,128v93.867c0,8.504,1.408,17.707,4.845,26.343
				C4.175,331.127-1,341.778-1,353.987v33.28c0,21.333,17.067,38.4,38.4,38.4h55.467h17.067H255c5.017,0,9.988-0.082,14.921-0.226
				c0.676,0.143,1.39,0.226,2.146,0.226c0.826,0,1.651-0.131,2.445-0.374c13.402-0.516,26.465-1.567,39.125-3.099
				c0.357,0.036,0.72,0.06,1.096,0.06c0.881,0,1.759-0.19,2.602-0.516c14.001-1.811,27.487-4.223,40.357-7.182
				c0.883-0.04,1.76-0.256,2.596-0.615c84.813-20.118,142.178-64.127,142.178-116.273V203.8C502.467,132.12,394.093,75.8,255,75.8z
				 M255,92.867c124.587,0,230.4,51.2,230.4,110.933S379.587,314.733,255,314.733S24.6,263.533,24.6,203.8
				S130.413,92.867,255,92.867z M27.16,314.733c-1.707-5.973-2.56-11.093-2.56-17.067v-46.08c2.015,2.603,4.193,5.162,6.517,7.679
				c20.157,22.217,52.234,40.751,92.271,53.523c2.039,0.661,4.091,1.312,6.173,1.944h-19.627H92.867H37.4H27.16z M92.867,408.6H37.4
				c-11.947,0-21.333-9.387-21.333-22.187v-33.28c0-11.947,9.387-21.333,21.333-21.333h55.467V408.6z M485.4,297.667
				c0,6.359-1.21,12.62-3.504,18.735c-1.471-1.066-3.248-1.668-5.03-1.668c-5.12,0-8.533,3.413-8.533,8.533v15.307
				c-4.793,5.574-10.508,10.943-17.067,16.056v-5.763c0-5.12-3.413-8.533-8.533-8.533c-5.12,0-8.533,3.413-8.533,8.533v17.376
				c-7.816,4.681-16.376,9.07-25.6,13.113v-13.423c0-5.12-3.413-8.533-8.533-8.533s-8.533,3.413-8.533,8.533v20.24
				c-8.151,2.961-16.708,5.666-25.6,8.101V383c0-5.12-3.413-8.533-8.533-8.533s-8.533,3.413-8.533,8.533v15.518
				c-8.3,1.855-16.848,3.475-25.6,4.844v-11.828c0-5.12-3.413-8.533-8.533-8.533s-8.533,3.413-8.533,8.533v14.148
				c-8.385,0.967-16.932,1.695-25.6,2.186v-16.334c0-5.12-3.413-8.533-8.533-8.533s-8.533,3.413-8.533,8.533v16.977
				c-2.835,0.053-5.677,0.089-8.533,0.089h-17.067v-17.067c0-5.12-3.413-8.533-8.533-8.533s-8.533,3.413-8.533,8.533V408.6h-25.6
				v-17.067c0-5.12-3.413-8.533-8.533-8.533s-8.533,3.413-8.533,8.533V408.6h-25.6v-17.067c0-5.12-3.413-8.533-8.533-8.533
				c-5.12,0-8.533,3.413-8.533,8.533V408.6h-25.6v-76.8H255c1.932,0,3.856-0.014,5.776-0.036c0.718-0.008,1.434-0.021,2.15-0.032
				c1.144-0.018,2.286-0.039,3.426-0.065c0.949-0.021,1.897-0.044,2.842-0.07c0.687-0.02,1.372-0.043,2.058-0.065
				c87.462-2.796,161.06-28.029,200.413-64.948c0.127-0.118,0.253-0.237,0.379-0.356c0.456-0.431,0.914-0.86,1.361-1.294
				c4.479-4.307,8.493-8.761,11.995-13.347V297.667z"/>
			<path d="M255,280.6c81.067,0,145.067-34.133,145.067-76.8S336.067,127,255,127s-145.067,34.133-145.067,76.8
				S173.933,280.6,255,280.6z M255,144.067c69.12,0,128,27.307,128,59.733c0,32.427-58.88,59.733-128,59.733S127,236.227,127,203.8
				C127,171.373,185.88,144.067,255,144.067z"/>
			<path d="M255,246.467c43.52,0,76.8-17.92,76.8-42.667s-33.28-42.667-76.8-42.667c-43.52,0-76.8,17.92-76.8,42.667
				S211.48,246.467,255,246.467z M255,178.2c34.133,0,59.733,13.653,59.733,25.6s-25.6,25.6-59.733,25.6
				c-34.133,0-59.733-13.653-59.733-25.6S220.867,178.2,255,178.2z"/>
			<path d="M24.6,370.2c0,16.213,13.653,29.867,29.867,29.867s29.867-13.653,29.867-29.867s-13.653-29.867-29.867-29.867
				S24.6,353.987,24.6,370.2z M54.467,357.4c6.827,0,12.8,5.973,12.8,12.8s-5.973,12.8-12.8,12.8s-12.8-5.973-12.8-12.8
				S47.64,357.4,54.467,357.4z"/>
		</g>
	</g>
</g>
</svg>