<svg width="102" height="101" viewBox="0 0 102 101" fill="none" xmlns="http://www.w3.org/2000/svg">
<path fill-rule="evenodd" clip-rule="evenodd" d="M51 101C79.1665 101 102 78.3903 102 50.5C102 22.6097 79.1665 0 51 0C22.8335 0 0 22.6097 0 50.5C0 78.3903 22.8335 101 51 101Z" fill="#008080"/>
<path d="M61 2C63.8891 2 66.7499 2.51732 69.419 3.52241C72.0882 4.5275 74.5135 6.00069 76.5563 7.85786C78.5992 9.71504 80.2197 11.9198 81.3253 14.3463C82.431 16.7728 83 19.3736 83 22C83 24.6264 82.431 27.2272 81.3253 29.6537C80.2197 32.0802 78.5992 34.285 76.5563 36.1421C74.5135 37.9993 72.0882 39.4725 69.419 40.4776C66.7499 41.4827 63.8891 42 61 42L61 22L61 2Z" fill="white"/>
<rect x="68" y="22" width="15" height="48" fill="white"/>
<circle cx="49.5" cy="67.5" r="33.5" fill="white"/>
<g clip-path="url(#clip0_5_131)">
<path d="M48.4813 49.7982L47.4562 50.2269L32.7999 57.5997L31.4406 58.2801C30.5311 58.7354 29.9723 59.5683 29.9723 60.4687V60.5838V63.8566V74.8963V75.6882C29.9723 75.91 29.9817 76.0973 30.0037 76.3183C30.0381 76.6619 30.0449 76.9631 30.1068 77.2809C30.1256 77.3777 30.1495 77.4761 30.1809 77.5777C30.5291 78.544 31.3166 79.3506 32.3668 79.8169L34.0036 80.5437V79.4547V77.265V64.8025L34.1052 63.6602C34.192 62.6839 34.6349 61.7554 35.3715 61.0053C36.0613 60.3029 36.8867 59.7066 37.8121 59.2422L53.7835 51.2272L52.3617 50.379C51.7203 49.9964 50.9888 49.7382 50.2183 49.6222L50.1254 49.6083C49.726 49.5482 49.3155 49.5716 48.929 49.6766L48.4813 49.7982Z" fill="#008080" stroke="#008080" stroke-linecap="round"/>
<path d="M55.1406 53.5982L54.1155 54.0269L46.7873 57.7133L40 61L38.0998 62.0801C37.1903 62.5354 36.6316 63.3683 36.6316 64.2687V64.3838V67.6567V78.6963V79.4882C36.6316 79.71 36.6409 79.8973 36.663 80.1183C36.6973 80.462 36.7042 80.7631 36.766 81.081C36.7848 81.1778 36.8088 81.2761 36.8401 81.3777C37.1884 82.344 37.9758 83.1506 39.0261 83.617L40.6628 84.3437V83.2548V81.065V68.6025L40.7644 67.4602C40.8513 66.484 41.2941 65.5555 42.0308 64.8053C42.7205 64.103 43.5459 63.5067 44.4713 63.0423L60.4428 55.0272L59.0209 54.1791C58.3796 53.7965 57.648 53.5382 56.8776 53.4223L56.7847 53.4083C56.3853 53.3482 55.9748 53.3717 55.5883 53.4766L55.1406 53.5982Z" fill="#008080" stroke="#008080" stroke-linecap="round"/>
<path d="M46.5476 69.8404L44.7431 69.0374C44.4978 68.9282 44.3439 68.7116 44.3439 68.4753V68.0282C44.3439 67.0991 44.8398 66.2208 45.6908 65.6422L46.5476 65.0597L61.3565 57.7493L62.6016 57.2814C63.2185 57.0496 63.9143 57.022 64.5537 57.204L65.597 57.5011C66.175 57.6656 66.7203 57.9043 67.2143 58.209C67.7981 58.5691 68.2321 59.0791 68.4528 59.6646C68.6157 60.0966 68.5308 60.5689 68.2236 60.9393C67.8387 61.4034 67.3487 61.7967 66.7825 62.0961L64.3325 63.3915L59.3548 65.7325L52.3923 69.2304L50.502 70.1184L50.302 70.2038C49.8159 70.4114 49.2693 70.4931 48.7295 70.4389L48.4188 70.4077C48.108 70.3764 47.8043 70.3065 47.5173 70.2L46.5476 69.8404Z" fill="#008080" stroke="#008080" stroke-linecap="round"/>
<path d="M44.1716 72.2073V77.3268L46.2892 78.4954L46.445 78.5783C47.986 79.3984 49.9266 79.44 51.5138 78.6869L53.0849 77.9415L59.7759 74.4888L65.9781 71.4416C66.5954 71.1383 67.1584 70.7607 67.6497 70.3204L67.6856 70.2883C68.2539 69.7791 68.58 69.1076 68.6007 68.4044L68.7064 64.8063L55.4758 71.0944L53.0923 72.3068C50.7336 73.5066 47.8352 73.6401 45.3391 72.6639L44.1716 72.2073Z" fill="#008080" stroke="#008080" stroke-linecap="round"/>
<path d="M44.1716 83.1351V81.0422L45.9503 81.8138C47.5922 82.5193 49.513 82.5766 51.2086 81.9709L51.6483 81.8138L68.7064 73.5643L68.82 75.6645C68.8588 76.3821 68.75 77.0999 68.4984 77.7853L68.3989 78.0563C68.2097 78.5719 67.8063 79.0106 67.2647 79.2899L66.1835 79.8474L62.3521 81.6026L54.4208 85.5619L50.5035 87.4583C49.5216 87.9336 48.3336 87.9822 47.303 87.589L46.7518 87.3788L45.6648 86.7313C44.8482 86.2449 44.3368 85.4663 44.2767 84.6176L44.1716 83.1351Z" fill="#008080" stroke="#008080" stroke-linecap="round"/>
</g>
<defs>
<clipPath id="clip0_5_131">
<rect width="40" height="40" fill="white" transform="translate(29 48)"/>
</clipPath>
</defs>
</svg>
